PathFileType	4	(X/Y/Z)	./resultDataOpenSim/trcMotMarkerGrf/sub10/qtm-04-03.trc
DataRate	CameraRate	NumFrames	NumMarkers	Units	OrigDataRate	OrigDataStartFrame	OrigNumFrames
250.000000	250.000000	14	24	m	250.000000	318	508
Frame#	Time	L.Toe.Tip			R.Toe.Tip			L.Ankle.Lat			R.Ankle.Lat			L.Ankle.Med			R.Ankle.Med			L.Heel			R.Heel			L.Knee.Lat			R.Knee.Lat			L.Knee.Med			R.Knee.Med			L.Thigh.Upper			R.Thigh.Upper			L.ASIS			R.ASIS			V.Sacral			L.Acromium			R.Acromium			C7			L.Elbow			R.Elbow			L.Wrist.Lat			R.Wrist.Lat
		X1	Y1	Z1	X2	Y2	Z2	X3	Y3	Z3	X4	Y4	Z4	X5	Y5	Z5	X6	Y6	Z6	X7	Y7	Z7	X8	Y8	Z8	X9	Y9	Z9	X10	Y10	Z10	X11	Y11	Z11	X12	Y12	Z12	X13	Y13	Z13	X14	Y14	Z14	X15	Y15	Z15	X16	Y16	Z16	X17	Y17	Z17	X18	Y18	Z18	X19	Y19	Z19	X20	Y20	Z20	X21	Y21	Z21	X22	Y22	Z22	X23	Y23	Z23	X24	Y24	Z24

318	1.268	0.041768234	-0.032953268	-0.10224377	0.87739072	0.056276728	0.0065881044	-0.056158231	0.055683561	-0.14813509	0.74330897	0.051403725	0.050850697	-0.041038081	0.077722411	-0.068515136	0.75596809	0.083745387	-0.031305325	-0.124243	0.067145554	-0.10891067	0.69783274	0.021773296	0.0040299401	0.14761602	0.38469197	-0.19084294	0.6485215	0.43782973	0.071776754	0.16099891	0.35713344	-0.068010659	0.65802056	0.44762534	-0.055368689	0.2978616	0.74643726	-0.24565993	0.43376088	0.77787719	0.1244758	0.39066144	0.84290482	-0.21154695	0.46960591	0.86228302	0.021706913	0.2412949	0.86283969	-0.023026031	0.37700635	1.3361435	-0.20389029	0.37871898	1.3124975	0.11352715	0.29403251	1.3465782	-0.050985851	0.45612099	1.0077181	-0.29049497	0.19411213	1.0229378	0.10904878	0.69313948	0.97637167	-0.21205954	0.15437365	0.81239186	0.2195165
319	1.272	0.042439698	-0.032907314	-0.10230541	0.87986955	0.052245745	0.0060276023	-0.053183476	0.057923436	-0.14883226	0.74599589	0.051440092	0.050846822	-0.037474061	0.079546822	-0.069298063	0.75891991	0.083437615	-0.031553146	-0.12077355	0.070591051	-0.10944821	0.69890597	0.022932422	0.0043627701	0.15217612	0.38516946	-0.19125682	0.65418198	0.437155	0.070977505	0.16716563	0.3570842	-0.068176912	0.66318727	0.4467106	-0.055661358	0.30472763	0.74627022	-0.24505059	0.44144702	0.77831387	0.12492628	0.39792144	0.84268693	-0.21125914	0.47661419	0.86228616	0.021836177	0.24906067	0.86343246	-0.023280203	0.38368369	1.3367742	-0.20297104	0.38609535	1.3123399	0.11437641	0.30116208	1.3463517	-0.050028793	0.46245249	1.0080942	-0.28979114	0.20167681	1.0227421	0.10938092	0.69908441	0.9766487	-0.21142723	0.16122432	0.81248719	0.22017851
320	1.276	0.043189841	-0.032843386	-0.10238786	0.88253177	0.049874361	0.0054144501	-0.050005555	0.060172675	-0.14959508	0.7482986	0.051530119	0.050887617	-0.03372382	0.081365758	-0.070127609	0.76129538	0.083247537	-0.031757243	-0.11708187	0.074077978	-0.11003619	0.69995187	0.023898826	0.0047957862	0.1569037	0.38569843	-0.19169787	0.6601532	0.43705963	0.070272977	0.17344036	0.35703838	-0.068359599	0.66868964	0.44621914	-0.056003479	0.31176601	0.74608099	-0.24448669	0.44914401	0.77885863	0.12540407	0.40529548	0.8424765	-0.21089613	0.48362548	0.8623644	0.022083372	0.25651483	0.86422713	-0.023112505	0.39048022	1.3374993	-0.20205475	0.39348769	1.3122667	0.11525511	0.30834637	1.3461149	-0.048967943	0.46860964	1.0084631	-0.28922	0.20926691	1.0225964	0.10976256	0.70501504	0.97689424	-0.21069841	0.16824341	0.81257764	0.22083515
321	1.28	0.044019679	-0.032768995	-0.10249802	0.88492112	0.048851824	0.0047235764	-0.046632055	0.062418845	-0.15042355	0.75006764	0.051651932	0.050930303	-0.029770901	0.083166857	-0.070999893	0.76295166	0.083085077	-0.031947985	-0.11314196	0.077602675	-0.1106532	0.70092682	0.024672646	0.005272361	0.16216946	0.38632446	-0.19213224	0.66654337	0.43766251	0.069666444	0.17983243	0.35699745	-0.068546877	0.67448394	0.4462123	-0.056388734	0.31894811	0.74585869	-0.24398176	0.45679383	0.77954493	0.12586172	0.41275532	0.84227805	-0.21045997	0.49065792	0.86248903	0.022450355	0.26386293	0.86503855	-0.022900976	0.39739612	1.3383192	-0.20113401	0.4008735	1.3122796	0.11615952	0.31549279	1.3459949	-0.047734065	0.4746302	1.0088464	-0.28873582	0.21686663	1.022497	0.11019028	0.71088566	0.97707348	-0.2099611	0.17542907	0.81266676	0.22149
322	1.284	0.04492229	-0.032704329	-0.10265846	0.88674696	0.048432381	0.0040257861	-0.043060182	0.06464271	-0.15130484	0.75142304	0.051846243	0.050942286	-0.025588905	0.084929228	-0.071920654	0.76409894	0.082963699	-0.032147625	-0.10893052	0.081151142	-0.11127136	0.70180692	0.025315435	0.0057252321	0.16833071	0.38701001	-0.19247183	0.6733812	0.4389397	0.069141701	0.18637382	0.35695794	-0.068726543	0.68051218	0.44670472	-0.056873189	0.3262412	0.74558289	-0.24354022	0.46435906	0.78039607	0.12627374	0.4202702	0.84208684	-0.20995357	0.49773124	0.8626512	0.022932469	0.2710615	0.86577403	-0.022861061	0.40443101	1.3392252	-0.20019627	0.40823623	1.3123783	0.11707248	0.32261119	1.3460838	-0.046405613	0.48054629	1.0092615	-0.2883049	0.22450876	1.0224382	0.11065994	0.71666169	0.977143	-0.20930326	0.18277912	0.81275498	0.22214671
323	1.288	0.045906964	-0.032678741	-0.10287379	0.88800666	0.047982969	0.0034592897	-0.039273548	0.066818262	-0.15222601	0.75253779	0.052125477	0.05088632	-0.021154733	0.086627017	-0.072900992	0.76503432	0.082901442	-0.032384199	-0.10442711	0.084706314	-0.11187918	0.70258182	0.025876402	0.0060964701	0.1753376	0.38754511	-0.19260575	0.68064821	0.44074629	0.068698717	0.19308628	0.35689927	-0.068905904	0.68673073	0.44767789	-0.057549778	0.33361533	0.74523296	-0.2431592	0.47182918	0.78142957	0.12664022	0.42782243	0.84189776	-0.2093714	0.50486106	0.86288741	0.023502528	0.2779151	0.86657463	-0.022927654	0.41157469	1.3401984	-0.19923352	0.4155772	1.3125574	0.11798	0.32978076	1.3463893	-0.045142907	0.48637174	1.0097139	-0.28791665	0.23226188	1.0224192	0.11116699	0.72233647	0.9770809	-0.20875045	0.1902933	0.81284128	0.2228048
324	1.292	0.047007357	-0.032718226	-0.10310691	0.8889604	0.047264475	0.0031242855	-0.035254937	0.068920947	-0.15318223	0.75352445	0.052465421	0.050728642	-0.016460174	0.088231081	-0.073961751	0.7659524	0.082884535	-0.032691759	-0.099609999	0.08825775	-0.11247589	0.70326891	0.026376583	0.0063435617	0.18274254	0.38765716	-0.19252071	0.68832594	0.4428838	0.068356015	0.19997822	0.35679158	-0.069113556	0.69310165	0.44908009	-0.058466778	0.34104696	0.74480171	-0.2428327	0.47920614	0.78266503	0.12697287	0.43540869	0.84170896	-0.20870667	0.51205044	0.86325455	0.024117139	0.28431576	0.86769971	-0.022961554	0.41880728	1.3412168	-0.19824617	0.4229047	1.3128101	0.11888311	0.33704494	1.3468555	-0.044025976	0.49211363	1.0102013	-0.28756894	0.24017657	1.0224324	0.11170723	0.72791686	0.97688038	-0.20829536	0.19797357	0.81292407	0.22346303
325	1.296	0.048255271	-0.03283932	-0.10329935	0.88998382	0.04635267	0.0030202218	-0.031000887	0.0709382	-0.15418038	0.75446025	0.052824507	0.050453168	-0.011499248	0.089716363	-0.075118979	0.76692486	0.082881405	-0.033091534	-0.094450668	0.09180267	-0.11305442	0.7039082	0.026823002	0.0064386729	0.19023496	0.38734174	-0.19237706	0.69633504	0.44515278	0.068095234	0.20706997	0.35661157	-0.069374877	0.69958433	0.45083439	-0.059569028	0.34851885	0.74430059	-0.24255456	0.48649579	0.78412426	0.12728148	0.44302545	0.84152014	-0.20796153	0.51929396	0.86379069	0.024742826	0.29033482	0.86916942	-0.022893046	0.426113	1.3422635	-0.19723704	0.43021318	1.3131343	0.11978925	0.34439192	1.3474064	-0.043017808	0.49777604	1.0107117	-0.28726131	0.24828639	1.0224597	0.11227937	0.7334184	0.97654576	-0.20792235	0.20581384	0.81300234	0.22412671
326	1.3	0.049652258	-0.033055596	-0.10342478	0.89134221	0.045401419	0.0030697824	-0.026514996	0.072867472	-0.15523068	0.75540761	0.053167632	0.050074492	-0.0062420961	0.091071117	-0.076356518	0.76795974	0.082859388	-0.033577341	-0.088921876	0.095334103	-0.11360105	0.70453628	0.027231002	0.0063872123	0.19803315	0.38691501	-0.19244157	0.70440621	0.44737828	0.067809073	0.21440121	0.35634224	-0.069706012	0.70613203	0.45284251	-0.060730735	0.35601772	0.74374999	-0.24231933	0.49370301	0.78581428	0.12756376	0.45065575	0.84133085	-0.20714852	0.52658103	0.86451815	0.025361283	0.29609201	0.87068706	-0.022624432	0.43348407	1.3433281	-0.19620619	0.43748763	1.313531	0.12069757	0.35179039	1.3479942	-0.042048354	0.50336337	1.0112354	-0.28699779	0.25659524	1.022491	0.11288531	0.73885818	0.97609089	-0.20761074	0.21378923	0.81307719	0.22480792
327	1.304	0.051176488	-0.033378811	-0.10352369	0.89302724	0.044484648	0.003170534	-0.021783041	0.074699092	-0.15632215	0.75638151	0.053479493	0.049640673	-0.00064316105	0.092294497	-0.077632538	0.769041	0.082786266	-0.034120299	-0.083011452	0.098832	-0.11410865	0.70516281	0.027622277	0.0062437748	0.20643035	0.38661912	-0.19283216	0.71216134	0.44942357	0.067362017	0.22200459	0.35596157	-0.070137845	0.71269554	0.45497971	-0.061848956	0.36353206	0.74316558	-0.24211723	0.50082922	0.78770349	0.12780589	0.45827307	0.841139	-0.20628132	0.53388824	0.86545277	0.025953906	0.30178357	0.87196026	-0.022077801	0.4409075	1.3443983	-0.19515197	0.44472484	1.3139968	0.12159681	0.35919234	1.3486142	-0.041055866	0.50888511	1.0117926	-0.2867902	0.26499838	1.0225363	0.11352597	0.74423488	0.97551958	-0.20735489	0.22188057	0.81314773	0.22551905
328	1.308	0.052795938	-0.03381084	-0.10367204	0.89480003	0.043603955	0.0032324748	-0.016763033	0.076408857	-0.1574141	0.75731938	0.053759518	0.049223738	0.0053218909	0.093386237	-0.078915116	0.77012867	0.082631815	-0.03468566	-0.076717895	0.10227562	-0.11458659	0.70576692	0.028001772	0.0060930345	0.21510797	0.38643512	-0.19334581	0.719373	0.45119463	0.06671023	0.22989149	0.3554411	-0.07071639	0.71921298	0.45710938	-0.062874575	0.37104935	0.74254991	-0.24193476	0.50788017	0.78972308	0.12799791	0.4658566	0.84094131	-0.20536289	0.54118634	0.86658912	0.026497439	0.30774623	0.87291862	-0.021454934	0.44836022	1.3454561	-0.19407543	0.45193308	1.3145221	0.12247462	0.3665312	1.3492905	-0.040003353	0.51435665	1.0124222	-0.28664908	0.27332097	1.0226149	0.11419313	0.74953163	0.97480856	-0.20717837	0.23011453	0.81320442	0.22626322
329	1.312	0.054469044	-0.034332681	-0.10390899	0.89639433	0.042766004	0.0032095574	-0.011401458	0.077978332	-0.15845631	0.75810033	0.054013966	0.048898247	0.011643171	0.094348614	-0.080188703	0.77115874	0.082379681	-0.035248579	-0.070042708	0.10566727	-0.11506185	0.70631226	0.028348729	0.0059986323	0.22343772	0.38629771	-0.19370953	0.72603736	0.45263348	0.065913414	0.23807635	0.35475547	-0.071463797	0.72560361	0.45910961	-0.063786564	0.37856003	0.7418901	-0.24176032	0.51487874	0.79179898	0.12814606	0.4733927	0.84073723	-0.20438611	0.5484678	0.86787062	0.026986962	0.31418117	0.87361881	-0.021139368	0.45581966	1.3464849	-0.19298114	0.45911537	1.3150964	0.12332636	0.37374246	1.3500501	-0.03891575	0.51979688	1.0131363	-0.28656638	0.28148362	1.0227306	0.1148693	0.75474005	0.97391948	-0.20711903	0.23854318	0.81323393	0.22703229
330	1.316	0.056158896	-0.034890141	-0.10421754	0.89767537	0.042006477	0.0031105061	-0.0056732285	0.079428124	-0.15942232	0.7586295	0.054244798	0.048695158	0.018283603	0.095202855	-0.081434112	0.77206695	0.082035191	-0.035801906	-0.063007988	0.10903617	-0.1155636	0.70676743	0.028632802	0.0059638342	0.23123329	0.38620454	-0.1938689	0.73224907	0.45370585	0.065055704	0.24659455	0.3538891	-0.072359131	0.73178078	0.46088025	-0.064585733	0.38606799	0.74117267	-0.2415865	0.52185906	0.79388083	0.12826702	0.48086625	0.84053285	-0.20334521	0.55573849	0.86919187	0.027445581	0.32102518	0.87412982	-0.021300364	0.46326875	1.3474769	-0.19187476	0.46626102	1.3157138	0.12415464	0.38079881	1.3508926	-0.037857278	0.52522197	1.0139139	-0.28651849	0.2895352	1.0228613	0.11554348	0.75986862	0.97283189	-0.20719423	0.24718449	0.81323156	0.2278202
331	1.32	0.057851889	-0.035388974	-0.10456853	0.89864423	0.041354485	0.0029679549	0.00037343933	0.080835714	-0.16033915	0.75894532	0.054432591	0.048553748	0.025177201	0.09600114	-0.08262804	0.7728194	0.081618019	-0.036352845	-0.055677114	0.11241903	-0.11609498	0.70712039	0.028837505	0.0059453307	0.23887686	0.38614902	-0.1939222	0.73809957	0.45438956	0.064193672	0.25548503	0.35283451	-0.073363867	0.73765732	0.46234162	-0.065291662	0.39359012	0.7404061	-0.24142329	0.52883037	0.79594576	0.12836897	0.48825959	0.84033963	-0.20224616	0.56296685	0.87046726	0.027891132	0.32822863	0.8745474	-0.021799172	0.47069241	1.3484326	-0.1907637	0.47335091	1.3163729	0.12496158	0.38775851	1.3517757	-0.036873561	0.53063403	1.0147303	-0.28649154	0.29754324	1.02297	0.11621879	0.7649295	0.9715747	-0.20736519	0.25601338	0.81320216	0.22863245
